<svg width="343" height="80" viewBox="0 0 343 80" fill="none" xmlns="http://www.w3.org/2000/svg">
<mask id="mask0" mask-type="alpha" maskUnits="userSpaceOnUse" x="0" y="0" width="343" height="80">
<rect width="343" height="80" rx="12" fill="#D10505"/>
</mask>
<g mask="url(#mask0)">
<rect width="343" height="80" fill="#D10505"/>
<path d="M263.844 80L209 0H375V80H263.844Z" fill="#770808"/>
<path d="M241.896 29.7557L266.722 64.6697L272.808 60.502L249.228 24.7344L241.896 29.7557ZM282.305 80.8177C285.274 78.7841 285.908 75.2267 283.874 72.2572C281.816 69.251 278.27 68.5558 275.3 70.5894C272.331 72.6231 271.661 76.2056 273.719 79.2117C275.753 82.1812 279.335 82.8514 282.305 80.8177Z" fill="#D10505"/>
<path d="M253.212 23.8462L263.163 21.3049C261.678 12.8201 265.941 6.21442 274.728 3.97035C283.399 1.756 290.337 5.62467 292.18 12.8403C293.77 19.0668 292.088 23.4015 286.393 29.257C279.64 36.0647 277.253 42.253 279.273 49.9193L280.64 55.2729L290.823 52.6721L289.857 48.8897C288.297 42.7797 289.56 38.986 295.835 32.7343C302.139 26.3513 305.203 18.6884 302.87 9.5524C299.809 -2.43492 287.481 -8.95653 272.817 -5.21145C256.466 -1.0354 250.642 11.1135 253.212 23.8462ZM293.413 80.7724C298.126 79.5686 300.581 75.3465 299.378 70.633C298.159 65.8614 293.98 63.3334 289.267 64.5372C284.553 65.7409 282.04 69.978 283.259 74.7496C284.463 79.4631 288.7 81.9762 293.413 80.7724Z" fill="#D10505"/>
</g>
<path d="M319 46L325 40L319 34" stroke="white" stroke-width="2" stroke-linecap="round" stroke-linejoin="round"/>
<path d="M22.4453 18.6562C17.4766 18.6562 14.3008 22.0547 14.3008 27.5391C14.3008 33.0234 17.4297 36.4336 22.4453 36.4336C27.4492 36.4336 30.5664 33.0234 30.5664 27.5391C30.5664 22.0664 27.4375 18.6562 22.4453 18.6562ZM22.4453 21.7617C25.1992 21.7617 26.957 24 26.957 27.5391C26.957 31.0664 25.1992 33.3281 22.4453 33.3281C19.668 33.3281 17.9219 31.0664 17.9219 27.5391C17.9219 24 19.7031 21.7617 22.4453 21.7617ZM37.3047 36V25.418H37.5156L45.3203 36H48.25V19.0898H44.8633V29.625H44.6523L36.8711 19.0898H33.918V36H37.3047ZM57.7891 31.3008C57.918 34.4531 60.5312 36.4336 64.5625 36.4336C68.8047 36.4336 71.418 34.3477 71.418 30.9375C71.418 28.3125 69.9531 26.8477 66.5547 26.1328L64.5156 25.6992C62.5352 25.2773 61.7266 24.6797 61.7266 23.6367C61.7266 22.3477 62.8984 21.5273 64.668 21.5273C66.3789 21.5273 67.6211 22.418 67.7852 23.7539H71.1133C71.0078 20.7422 68.3711 18.6562 64.6445 18.6562C60.7422 18.6562 58.1758 20.7539 58.1758 23.9414C58.1758 26.5195 59.6875 28.125 62.7695 28.7695L64.9727 29.2383C67.0469 29.6836 67.8906 30.3047 67.8906 31.3828C67.8906 32.6602 66.5898 33.5508 64.75 33.5508C62.7578 33.5508 61.375 32.6719 61.2109 31.3008H57.7891ZM85.6328 36H89.4648L83.5938 19.0898H79.4336L73.5625 36H77.1133L78.4141 31.9688H84.3555L85.6328 36ZM81.2969 22.6055H81.5078L83.6055 29.2383H79.1758L81.2969 22.6055ZM103.41 32.918H95.8867V19.0898H92.3477V36H103.41V32.918ZM117.824 32.9766H110.16V28.8633H117.391V26.0625H110.16V22.1133H117.824V19.0898H106.621V36H117.824V32.9766ZM121.902 19.0898L122.207 30.4336H125.336L125.652 19.0898H121.902ZM123.777 36.3516C125.102 36.3516 125.91 35.5898 125.91 34.3594C125.91 33.1172 125.102 32.3555 123.777 32.3555C122.465 32.3555 121.645 33.1172 121.645 34.3594C121.645 35.5898 122.465 36.3516 123.777 36.3516Z" fill="white"/>
<path d="M17.2656 63V55.6758H24.7539V53.8008H17.2656V47.9883H25.4219V46.0898H15.1562V63H17.2656ZM36.0039 45.6914C31.2227 45.6914 28.2344 49.1016 28.2344 54.5391C28.2344 59.9531 31.1523 63.3984 36.0039 63.3984C40.832 63.3984 43.7383 59.9414 43.7383 54.5391C43.7383 49.1133 40.8086 45.6914 36.0039 45.6914ZM36.0039 47.6367C39.4609 47.6367 41.5703 50.3086 41.5703 54.5391C41.5703 58.7344 39.4727 61.4531 36.0039 61.4531C32.4883 61.4531 30.4023 58.7344 30.4023 54.5391C30.4023 50.3086 32.5586 47.6367 36.0039 47.6367ZM49.5156 47.9648H53.582C55.7617 47.9648 57.0742 49.1719 57.0742 51.1992C57.0742 53.2734 55.8438 54.4336 53.6758 54.4336H49.5156V47.9648ZM49.5156 56.3086H53.6758L57.2969 63H59.7695L55.8555 55.9805C57.9766 55.3125 59.2539 53.4844 59.2539 51.1289C59.2539 48.082 57.1211 46.0898 53.8633 46.0898H47.4062V63H49.5156V56.3086ZM80.125 61.1016H71.9688V46.0898H69.8594V63H80.125V61.1016ZM85.6094 63V46.0898H83.5V63H85.6094ZM106.586 63V46.0898H104.137L98.3477 60.082H98.1602L92.3711 46.0898H89.9219V63H91.8906V50.0859H92.0312L97.3633 62.8828H99.1445L104.477 50.0859H104.617V63H106.586ZM113.008 63V46.0898H110.898V63H113.008ZM123.824 63V47.9883H129.273V46.0898H116.266V47.9883H121.715V63H123.824ZM143.008 61.1016H134.641V55.2891H142.574V53.4141H134.641V47.9883H143.008V46.0898H132.531V63H143.008V61.1016ZM146.828 46.0898V63H152.629C157.656 63 160.609 59.8711 160.609 54.5391C160.609 49.2188 157.645 46.0898 152.629 46.0898H146.828ZM148.938 47.9883H152.488C156.238 47.9883 158.453 50.4258 158.453 54.5625C158.453 58.6875 156.262 61.1016 152.488 61.1016H148.938V47.9883ZM177.543 63V47.9883H182.992V46.0898H169.984V47.9883H175.434V63H177.543ZM188.359 63V46.0898H186.25V63H188.359ZM209.336 63V46.0898H206.887L201.098 60.082H200.91L195.121 46.0898H192.672V63H194.641V50.0859H194.781L200.113 62.8828H201.895L207.227 50.0859H207.367V63H209.336ZM224.125 61.1016H215.758V55.2891H223.691V53.4141H215.758V47.9883H224.125V46.0898H213.648V63H224.125V61.1016Z" fill="white"/>
</svg>
