<svg width="33" height="33" viewBox="0 0 33 33" fill="none" xmlns="http://www.w3.org/2000/svg">
<path d="M13.75 15.5833H3.66668C3.18045 15.5833 2.71413 15.3902 2.37031 15.0464C2.0265 14.7025 1.83334 14.2362 1.83334 13.75V7.33333C1.83334 6.8471 2.0265 6.38079 2.37031 6.03697C2.71413 5.69315 3.18045 5.5 3.66668 5.5H13.75C14.2362 5.5 14.7026 5.69315 15.0464 6.03697C15.3902 6.38079 15.5833 6.8471 15.5833 7.33333V13.75C15.5833 14.2362 15.3902 14.7025 15.0464 15.0464C14.7026 15.3902 14.2362 15.5833 13.75 15.5833ZM3.66668 7.33333V13.75H13.75V7.33333H3.66668Z" fill="#FFAD62"/>
<path d="M29.3333 15.5833H19.25C18.7638 15.5833 18.2974 15.3902 17.9536 15.0464C17.6098 14.7025 17.4167 14.2362 17.4167 13.75V7.33333C17.4167 6.8471 17.6098 6.38079 17.9536 6.03697C18.2974 5.69315 18.7638 5.5 19.25 5.5H20.7075V5.55133C20.7075 6.16825 20.79 6.76592 20.944 7.33333H19.25V13.75H29.3333V12.0771C29.9824 11.8931 30.6003 11.6132 31.1667 11.2466V13.75C31.1667 14.2362 30.9735 14.7025 30.6297 15.0464C30.2859 15.3902 29.8196 15.5833 29.3333 15.5833Z" fill="#FFAD62"/>
<path d="M13.75 27.4998H3.66668C3.18045 27.4998 2.71413 27.3067 2.37031 26.9629C2.0265 26.619 1.83334 26.1527 1.83334 25.6665V19.2498C1.83334 18.7636 2.0265 18.2973 2.37031 17.9535C2.71413 17.6097 3.18045 17.4165 3.66668 17.4165H13.75C14.2362 17.4165 14.7026 17.6097 15.0464 17.9535C15.3902 18.2973 15.5833 18.7636 15.5833 19.2498V25.6665C15.5833 26.1527 15.3902 26.619 15.0464 26.9629C14.7026 27.3067 14.2362 27.4998 13.75 27.4998ZM3.66668 19.2498V25.6665H13.75V19.2498H3.66668Z" fill="#FFAD62"/>
<path d="M29.3333 27.4998H19.25C18.7638 27.4998 18.2974 27.3067 17.9536 26.9629C17.6098 26.619 17.4167 26.1527 17.4167 25.6665V19.2498C17.4167 18.7636 17.6098 18.2973 17.9536 17.9535C18.2974 17.6097 18.7638 17.4165 19.25 17.4165H29.3333C29.8196 17.4165 30.2859 17.6097 30.6297 17.9535C30.9735 18.2973 31.1667 18.7636 31.1667 19.2498V25.6665C31.1667 26.1527 30.9735 26.619 30.6297 26.9629C30.2859 27.3067 29.8196 27.4998 29.3333 27.4998ZM19.25 19.2498V25.6665H29.3333V19.2498H19.25Z" fill="#FFAD62"/>
<path d="M27.5 10.0832C30.0313 10.0832 32.0833 8.03114 32.0833 5.49984C32.0833 2.96853 30.0313 0.916504 27.5 0.916504C24.9687 0.916504 22.9167 2.96853 22.9167 5.49984C22.9167 8.03114 24.9687 10.0832 27.5 10.0832Z" fill="#FFAD62"/>
</svg>
